<svg xmlns="http://www.w3.org/2000/svg"><symbol id="behance" viewBox="0 0 24 24"><path d="M8.84 10.835H6.875V8.976h1.783c1.878 0 1.646 1.859.182 1.859zm5.789 1.058h2.624c-.115-1.687-2.36-1.81-2.624 0zm-5.9.396H6.875v1.947h1.824c1.782-.001 1.673-1.947.03-1.947zM24 12c0 6.627-5.373 12-12 12S0 18.627 0 12 5.373 0 12 0s12 5.373 12 12zm-13.357-.733c1.668-.853 1.607-3.981-1.587-4.028H5v8.73h3.771c3.958 0 3.891-3.967 1.872-4.702zM14 8.101h4v-.875h-4v.875zm4.943 3.693c-.545-3.505-6.053-3.711-6.053.872 0 4.526 5.18 3.818 5.949 1.56h-1.848c-.645.748-2.508.531-2.404-1.184h4.41c.009-.555-.009-.953-.054-1.248z"/></symbol><symbol id="instagram" viewBox="0 0 24 24"><path d="M14.829 6.302c-.738-.034-.96-.04-2.829-.04s-2.09.007-2.828.04c-1.899.087-2.783.986-2.87 2.87-.033.738-.041.959-.041 2.828s.008 2.09.041 2.829c.087 1.879.967 2.783 2.87 2.87.737.033.959.041 2.828.041 1.87 0 2.091-.007 2.829-.041 1.899-.086 2.782-.988 2.87-2.87.033-.738.04-.96.04-2.829s-.007-2.09-.04-2.828c-.088-1.883-.973-2.783-2.87-2.87zM12 15.595a3.595 3.595 0 1 1 0-7.19 3.595 3.595 0 0 1 0 7.19zm3.737-6.491a.84.84 0 1 1 0-1.68.84.84 0 0 1 0 1.68zM14.333 12a2.333 2.333 0 1 1-4.666 0 2.333 2.333 0 0 1 4.666 0zM12 0C5.373 0 0 5.373 0 12s5.373 12 12 12 12-5.373 12-12S18.627 0 12 0zm6.958 14.886c-.115 2.545-1.532 3.955-4.071 4.072-.747.034-.986.042-2.887.042s-2.139-.008-2.886-.042c-2.544-.117-3.955-1.529-4.072-4.072C5.008 14.14 5 13.901 5 12c0-1.901.008-2.139.042-2.886.117-2.544 1.529-3.955 4.072-4.071C9.861 5.008 10.099 5 12 5s2.14.008 2.887.043c2.545.117 3.957 1.532 4.071 4.071.034.747.042.985.042 2.886 0 1.901-.008 2.14-.042 2.886z"/></symbol><symbol id="linkedin" viewBox="0 0 24 24"><path d="M12 0C5.373 0 0 5.373 0 12s5.373 12 12 12 12-5.373 12-12S18.627 0 12 0zm-2 16H8v-6h2v6zM9 9.109c-.607 0-1.1-.496-1.1-1.109 0-.612.492-1.109 1.1-1.109s1.1.497 1.1 1.109c0 .613-.493 1.109-1.1 1.109zM17 16h-1.998v-2.861c0-1.881-2.002-1.722-2.002 0V16h-2v-6h2v1.093c.872-1.616 4-1.736 4 1.548V16z"/></symbol><symbol id="logo" viewBox="0 0 1206 1206"><style>.st0{fill:#c1272d}.st1{fill:#333}</style><path d="M603 120c265.7.5 480.7 216.2 480.3 481.9s-216.3 480.8-482 480.3S120.6 866 121 600.3c.4-193.1 116.1-367.3 294-442.4 59.5-25.2 123.4-38 188-37.9m0-120C270 0 0 270 0 603s270 603 603 603 603-270 603-603S936 0 603 0z" class="st0"/><path d="M335 310.4h68.2v314.3h1.5l61.7-154.6h63.9l-66 163.3 74.8 201h-72.7l-61.7-187.2h-1.5v187.3H335V310.4zm234.4 159.7h63.9v30.5h1.5c10.9-18.9 36.3-34.8 64.6-34.8 23.2 0 45 11.6 59.5 34.8 10.9-18.1 29.8-34.8 60.2-34.8 37 0 66.8 18.1 66.8 71.9v296.9h-68.2v-284c0-18.9-5.1-32.7-26.1-32.7-16.7 0-29.8 10.2-29.8 38.5v278h-68.2V550.6c0-18.9-5.1-32.7-26.1-32.7-16.7 0-29.8 10.2-29.8 38.5v278h-68.3V470.1z" class="st1"/></symbol></svg>